<svg width="339" height="388" viewBox="0 0 339 388" fill="none" xmlns="http://www.w3.org/2000/svg">
<path d="M93.3957 193.753L92.8878 193.755L93.3957 193.758C51.4797 193.758 17.5 227.737 17.5 269.653L92.8878 269.726V345.543L169.288 269.726C169.329 311.605 203.292 345.543 245.182 345.543V269.653L321.075 269.653C321.075 227.737 287.096 193.758 245.18 193.758L245.687 193.755L245.18 193.753C287.096 193.753 321.075 159.773 321.075 117.857H245.687L245.18 41.9675L169.288 117.857C169.288 78.7549 135.286 41.9675 93.3941 41.9675L93.3941 117.857L17.5 117.857C17.5 159.773 51.4797 193.753 93.3957 193.753Z" stroke="currentColor" stroke-width="35"/>
</svg>
